<mxfile host="app.diagrams.net" modified="2023-10-24T14:50:41.681Z" agent="Mozilla/5.0 (Windows NT 10.0; Win64; x64) AppleWebKit/537.36 (KHTML, like Gecko) Chrome/118.0.0.0 Safari/537.36" etag="_rxg_2eS-Srr5qdVOvZY" version="22.0.6" type="github">
  <diagram id="R2lEEEUBdFMjLlhIrx00" name="Page-1">
    <mxGraphModel dx="350" dy="352" grid="1" gridSize="10" guides="1" tooltips="1" connect="1" arrows="1" fold="1" page="1" pageScale="1" pageWidth="850" pageHeight="1100" math="0" shadow="0" extFonts="Permanent Marker^https://fonts.googleapis.com/css?family=Permanent+Marker">
      <root>
        <mxCell id="0" />
        <mxCell id="1" parent="0" />
        <mxCell id="5BNBw6zcGZD52pD1R5xM-1" value="Animales" style="rounded=0;whiteSpace=wrap;html=1;" vertex="1" parent="1">
          <mxGeometry x="80" y="120" width="80" height="40" as="geometry" />
        </mxCell>
        <mxCell id="5BNBw6zcGZD52pD1R5xM-11" style="edgeStyle=orthogonalEdgeStyle;rounded=0;orthogonalLoop=1;jettySize=auto;html=1;exitX=1;exitY=1;exitDx=0;exitDy=0;entryX=0;entryY=0;entryDx=0;entryDy=0;" edge="1" parent="1" source="5BNBw6zcGZD52pD1R5xM-2" target="5BNBw6zcGZD52pD1R5xM-1">
          <mxGeometry relative="1" as="geometry" />
        </mxCell>
        <mxCell id="5BNBw6zcGZD52pD1R5xM-2" value="nÂº chip" style="ellipse;whiteSpace=wrap;html=1;" vertex="1" parent="1">
          <mxGeometry x="30" y="75" width="50" height="30" as="geometry" />
        </mxCell>
        <mxCell id="5BNBw6zcGZD52pD1R5xM-13" style="edgeStyle=orthogonalEdgeStyle;rounded=0;orthogonalLoop=1;jettySize=auto;html=1;exitX=0.5;exitY=1;exitDx=0;exitDy=0;entryX=0.5;entryY=0;entryDx=0;entryDy=0;" edge="1" parent="1" source="5BNBw6zcGZD52pD1R5xM-3" target="5BNBw6zcGZD52pD1R5xM-1">
          <mxGeometry relative="1" as="geometry" />
        </mxCell>
        <mxCell id="5BNBw6zcGZD52pD1R5xM-3" value="especie" style="ellipse;whiteSpace=wrap;html=1;" vertex="1" parent="1">
          <mxGeometry x="95" y="75" width="50" height="30" as="geometry" />
        </mxCell>
        <mxCell id="5BNBw6zcGZD52pD1R5xM-10" style="edgeStyle=orthogonalEdgeStyle;rounded=0;orthogonalLoop=1;jettySize=auto;html=1;exitX=1;exitY=1;exitDx=0;exitDy=0;" edge="1" parent="1" source="5BNBw6zcGZD52pD1R5xM-4" target="5BNBw6zcGZD52pD1R5xM-1">
          <mxGeometry relative="1" as="geometry">
            <Array as="points">
              <mxPoint x="54" y="140" />
            </Array>
          </mxGeometry>
        </mxCell>
        <mxCell id="5BNBw6zcGZD52pD1R5xM-4" value="raza" style="ellipse;whiteSpace=wrap;html=1;" vertex="1" parent="1">
          <mxGeometry x="20" y="110" width="40" height="20" as="geometry" />
        </mxCell>
        <mxCell id="5BNBw6zcGZD52pD1R5xM-16" style="edgeStyle=orthogonalEdgeStyle;rounded=0;orthogonalLoop=1;jettySize=auto;html=1;exitX=0;exitY=0.5;exitDx=0;exitDy=0;" edge="1" parent="1" source="5BNBw6zcGZD52pD1R5xM-5">
          <mxGeometry relative="1" as="geometry">
            <mxPoint x="150" y="120" as="targetPoint" />
            <Array as="points">
              <mxPoint x="150" y="100" />
            </Array>
          </mxGeometry>
        </mxCell>
        <mxCell id="5BNBw6zcGZD52pD1R5xM-5" value="fecha nacimiento" style="ellipse;whiteSpace=wrap;html=1;" vertex="1" parent="1">
          <mxGeometry x="210" y="80" width="70" height="40" as="geometry" />
        </mxCell>
        <mxCell id="5BNBw6zcGZD52pD1R5xM-6" value="sexo" style="ellipse;whiteSpace=wrap;html=1;" vertex="1" parent="1">
          <mxGeometry x="130" y="45" width="40" height="30" as="geometry" />
        </mxCell>
        <mxCell id="5BNBw6zcGZD52pD1R5xM-15" style="edgeStyle=orthogonalEdgeStyle;rounded=0;orthogonalLoop=1;jettySize=auto;html=1;exitX=0;exitY=1;exitDx=0;exitDy=0;" edge="1" parent="1" source="5BNBw6zcGZD52pD1R5xM-7">
          <mxGeometry relative="1" as="geometry">
            <mxPoint x="150" y="120" as="targetPoint" />
          </mxGeometry>
        </mxCell>
        <mxCell id="5BNBw6zcGZD52pD1R5xM-7" value="color" style="ellipse;whiteSpace=wrap;html=1;" vertex="1" parent="1">
          <mxGeometry x="170" y="70" width="40" height="25" as="geometry" />
        </mxCell>
        <mxCell id="5BNBw6zcGZD52pD1R5xM-9" value="estado" style="ellipse;whiteSpace=wrap;html=1;" vertex="1" parent="1">
          <mxGeometry x="70" y="50" width="40" height="30" as="geometry" />
        </mxCell>
        <mxCell id="5BNBw6zcGZD52pD1R5xM-12" style="edgeStyle=orthogonalEdgeStyle;rounded=0;orthogonalLoop=1;jettySize=auto;html=1;exitX=0.5;exitY=1;exitDx=0;exitDy=0;entryX=0.113;entryY=-0.002;entryDx=0;entryDy=0;entryPerimeter=0;" edge="1" parent="1" source="5BNBw6zcGZD52pD1R5xM-9" target="5BNBw6zcGZD52pD1R5xM-1">
          <mxGeometry relative="1" as="geometry" />
        </mxCell>
        <mxCell id="5BNBw6zcGZD52pD1R5xM-14" style="edgeStyle=orthogonalEdgeStyle;rounded=0;orthogonalLoop=1;jettySize=auto;html=1;exitX=0.5;exitY=1;exitDx=0;exitDy=0;entryX=0.869;entryY=-0.038;entryDx=0;entryDy=0;entryPerimeter=0;" edge="1" parent="1" source="5BNBw6zcGZD52pD1R5xM-6" target="5BNBw6zcGZD52pD1R5xM-1">
          <mxGeometry relative="1" as="geometry" />
        </mxCell>
      </root>
    </mxGraphModel>
  </diagram>
</mxfile>
